<?xml version="1.0" standalone="no"?>
<!DOCTYPE svg PUBLIC "-//W3C//DTD SVG 20010904//EN"
 "http://www.w3.org/TR/2001/REC-SVG-20010904/DTD/svg10.dtd">
<svg version="1.0" xmlns="http://www.w3.org/2000/svg"
 width="512.000000pt" height="512.000000pt" viewBox="0 0 512.000000 512.000000"
 preserveAspectRatio="xMidYMid meet">
<metadata>
Created by potrace 1.14, written by Peter Selinger 2001-2017
</metadata>
<g transform="translate(0.000000,512.000000) scale(0.100000,-0.100000)"
fill="#000000" stroke="none">
<path d="M2379 5116 c-2 -2 -40 -6 -83 -10 -44 -4 -82 -8 -85 -10 -3 -2 -31
-7 -61 -11 -30 -3 -75 -11 -100 -17 -25 -5 -56 -12 -70 -14 -53 -10 -237 -66
-329 -101 -404 -151 -827 -458 -1082 -784 -18 -24 -36 -46 -39 -49 -3 -3 -16
-21 -30 -40 -236 -333 -376 -649 -449 -1010 -38 -190 -46 -274 -45 -520 0
-184 3 -241 19 -345 3 -16 7 -43 9 -60 36 -253 165 -621 296 -840 16 -27 38
-66 49 -85 19 -36 131 -196 166 -239 162 -198 306 -337 489 -475 319 -239 734
-415 1112 -471 22 -4 50 -8 64 -11 144 -26 530 -26 708 1 75 12 90 14 142 25
30 6 66 13 80 16 81 15 342 100 430 140 643 293 1102 763 1363 1394 37 91 104
296 113 345 2 17 7 37 9 45 2 8 7 30 10 49 3 19 8 37 10 40 5 10 18 101 32
226 10 91 10 409 1 505 -9 85 -22 172 -37 245 -6 28 -13 61 -15 75 -11 55 -50
190 -78 270 -261 741 -846 1325 -1584 1580 -103 35 -283 84 -354 96 -70 11
-86 14 -195 30 -44 6 -460 15 -466 10z"/>
</g>
</svg>
